<mxfile host="app.diagrams.net" agent="Mozilla/5.0 (X11; Linux x86_64; rv:123.0) Gecko/20100101 Firefox/123.0" version="24.7.14">
  <diagram name="Page-1" id="C6ntDTd0bWttiWOmF5_U">
    <mxGraphModel dx="2722" dy="1487" grid="1" gridSize="10" guides="1" tooltips="1" connect="1" arrows="1" fold="1" page="1" pageScale="1" pageWidth="850" pageHeight="1100" math="0" shadow="0">
      <root>
        <mxCell id="0" />
        <mxCell id="1" parent="0" />
        <mxCell id="ITTZHsT7kYhz0qVGaieH-1" value="" style="html=1;whiteSpace=wrap;shape=isoCube2;backgroundOutline=1;isoAngle=15;" vertex="1" parent="1">
          <mxGeometry x="163" y="165" width="63" height="70" as="geometry" />
        </mxCell>
        <mxCell id="ITTZHsT7kYhz0qVGaieH-2" value="" style="html=1;whiteSpace=wrap;shape=isoCube2;backgroundOutline=1;isoAngle=15;" vertex="1" parent="1">
          <mxGeometry x="134" y="179" width="63" height="70" as="geometry" />
        </mxCell>
        <mxCell id="ITTZHsT7kYhz0qVGaieH-3" value="" style="html=1;whiteSpace=wrap;shape=isoCube2;backgroundOutline=1;isoAngle=15;" vertex="1" parent="1">
          <mxGeometry x="103" y="194" width="63" height="70" as="geometry" />
        </mxCell>
        <mxCell id="ITTZHsT7kYhz0qVGaieH-4" value="" style="html=1;whiteSpace=wrap;shape=isoCube2;backgroundOutline=1;isoAngle=15;" vertex="1" parent="1">
          <mxGeometry x="72" y="209" width="63" height="70" as="geometry" />
        </mxCell>
        <mxCell id="ITTZHsT7kYhz0qVGaieH-5" value="" style="html=1;whiteSpace=wrap;shape=isoCube2;backgroundOutline=1;isoAngle=15;" vertex="1" parent="1">
          <mxGeometry x="41" y="224" width="63" height="70" as="geometry" />
        </mxCell>
        <mxCell id="ITTZHsT7kYhz0qVGaieH-6" value="" style="html=1;whiteSpace=wrap;shape=isoCube2;backgroundOutline=1;isoAngle=15;" vertex="1" parent="1">
          <mxGeometry x="10" y="239" width="63" height="70" as="geometry" />
        </mxCell>
        <mxCell id="ITTZHsT7kYhz0qVGaieH-7" value="" style="html=1;whiteSpace=wrap;shape=isoCube2;backgroundOutline=1;isoAngle=15;" vertex="1" parent="1">
          <mxGeometry x="433" y="164" width="63" height="70" as="geometry" />
        </mxCell>
        <mxCell id="ITTZHsT7kYhz0qVGaieH-8" value="" style="html=1;whiteSpace=wrap;shape=isoCube2;backgroundOutline=1;isoAngle=15;" vertex="1" parent="1">
          <mxGeometry x="404" y="178" width="63" height="70" as="geometry" />
        </mxCell>
        <mxCell id="ITTZHsT7kYhz0qVGaieH-9" value="" style="html=1;whiteSpace=wrap;shape=isoCube2;backgroundOutline=1;isoAngle=15;" vertex="1" parent="1">
          <mxGeometry x="373" y="193" width="63" height="70" as="geometry" />
        </mxCell>
        <mxCell id="ITTZHsT7kYhz0qVGaieH-10" value="" style="html=1;whiteSpace=wrap;shape=isoCube2;backgroundOutline=1;isoAngle=15;" vertex="1" parent="1">
          <mxGeometry x="342" y="208" width="63" height="70" as="geometry" />
        </mxCell>
        <mxCell id="ITTZHsT7kYhz0qVGaieH-11" value="" style="html=1;whiteSpace=wrap;shape=isoCube2;backgroundOutline=1;isoAngle=15;" vertex="1" parent="1">
          <mxGeometry x="311" y="223" width="63" height="70" as="geometry" />
        </mxCell>
        <mxCell id="ITTZHsT7kYhz0qVGaieH-12" value="" style="html=1;whiteSpace=wrap;shape=isoCube2;backgroundOutline=1;isoAngle=15;" vertex="1" parent="1">
          <mxGeometry x="280" y="238" width="63" height="70" as="geometry" />
        </mxCell>
        <mxCell id="ITTZHsT7kYhz0qVGaieH-13" value="" style="html=1;whiteSpace=wrap;shape=isoCube2;backgroundOutline=1;isoAngle=15;" vertex="1" parent="1">
          <mxGeometry x="433" y="124" width="63" height="70" as="geometry" />
        </mxCell>
        <mxCell id="ITTZHsT7kYhz0qVGaieH-14" value="" style="html=1;whiteSpace=wrap;shape=isoCube2;backgroundOutline=1;isoAngle=15;" vertex="1" parent="1">
          <mxGeometry x="404" y="138" width="63" height="70" as="geometry" />
        </mxCell>
        <mxCell id="ITTZHsT7kYhz0qVGaieH-15" value="" style="html=1;whiteSpace=wrap;shape=isoCube2;backgroundOutline=1;isoAngle=15;" vertex="1" parent="1">
          <mxGeometry x="373" y="153" width="63" height="70" as="geometry" />
        </mxCell>
        <mxCell id="ITTZHsT7kYhz0qVGaieH-16" value="" style="html=1;whiteSpace=wrap;shape=isoCube2;backgroundOutline=1;isoAngle=15;" vertex="1" parent="1">
          <mxGeometry x="342" y="168" width="63" height="70" as="geometry" />
        </mxCell>
        <mxCell id="ITTZHsT7kYhz0qVGaieH-17" value="" style="html=1;whiteSpace=wrap;shape=isoCube2;backgroundOutline=1;isoAngle=15;" vertex="1" parent="1">
          <mxGeometry x="311" y="183" width="63" height="70" as="geometry" />
        </mxCell>
        <mxCell id="ITTZHsT7kYhz0qVGaieH-18" value="" style="html=1;whiteSpace=wrap;shape=isoCube2;backgroundOutline=1;isoAngle=15;" vertex="1" parent="1">
          <mxGeometry x="280" y="198" width="63" height="70" as="geometry" />
        </mxCell>
        <mxCell id="ITTZHsT7kYhz0qVGaieH-19" value="" style="html=1;whiteSpace=wrap;shape=isoCube2;backgroundOutline=1;isoAngle=15;" vertex="1" parent="1">
          <mxGeometry x="433" y="84" width="63" height="70" as="geometry" />
        </mxCell>
        <mxCell id="ITTZHsT7kYhz0qVGaieH-20" value="" style="html=1;whiteSpace=wrap;shape=isoCube2;backgroundOutline=1;isoAngle=15;" vertex="1" parent="1">
          <mxGeometry x="404" y="98" width="63" height="70" as="geometry" />
        </mxCell>
        <mxCell id="ITTZHsT7kYhz0qVGaieH-21" value="" style="html=1;whiteSpace=wrap;shape=isoCube2;backgroundOutline=1;isoAngle=15;" vertex="1" parent="1">
          <mxGeometry x="373" y="113" width="63" height="70" as="geometry" />
        </mxCell>
        <mxCell id="ITTZHsT7kYhz0qVGaieH-22" value="" style="html=1;whiteSpace=wrap;shape=isoCube2;backgroundOutline=1;isoAngle=15;" vertex="1" parent="1">
          <mxGeometry x="342" y="128" width="63" height="70" as="geometry" />
        </mxCell>
        <mxCell id="ITTZHsT7kYhz0qVGaieH-23" value="" style="html=1;whiteSpace=wrap;shape=isoCube2;backgroundOutline=1;isoAngle=15;" vertex="1" parent="1">
          <mxGeometry x="311" y="143" width="63" height="70" as="geometry" />
        </mxCell>
        <mxCell id="ITTZHsT7kYhz0qVGaieH-24" value="" style="html=1;whiteSpace=wrap;shape=isoCube2;backgroundOutline=1;isoAngle=15;" vertex="1" parent="1">
          <mxGeometry x="280" y="158" width="63" height="70" as="geometry" />
        </mxCell>
        <mxCell id="ITTZHsT7kYhz0qVGaieH-25" value="" style="html=1;whiteSpace=wrap;shape=isoCube2;backgroundOutline=1;isoAngle=15;" vertex="1" parent="1">
          <mxGeometry x="433" y="44" width="63" height="70" as="geometry" />
        </mxCell>
        <mxCell id="ITTZHsT7kYhz0qVGaieH-26" value="" style="html=1;whiteSpace=wrap;shape=isoCube2;backgroundOutline=1;isoAngle=15;" vertex="1" parent="1">
          <mxGeometry x="404" y="58" width="63" height="70" as="geometry" />
        </mxCell>
        <mxCell id="ITTZHsT7kYhz0qVGaieH-27" value="" style="html=1;whiteSpace=wrap;shape=isoCube2;backgroundOutline=1;isoAngle=15;" vertex="1" parent="1">
          <mxGeometry x="373" y="73" width="63" height="70" as="geometry" />
        </mxCell>
        <mxCell id="ITTZHsT7kYhz0qVGaieH-28" value="" style="html=1;whiteSpace=wrap;shape=isoCube2;backgroundOutline=1;isoAngle=15;" vertex="1" parent="1">
          <mxGeometry x="342" y="88" width="63" height="70" as="geometry" />
        </mxCell>
        <mxCell id="ITTZHsT7kYhz0qVGaieH-29" value="" style="html=1;whiteSpace=wrap;shape=isoCube2;backgroundOutline=1;isoAngle=15;" vertex="1" parent="1">
          <mxGeometry x="311" y="103" width="63" height="70" as="geometry" />
        </mxCell>
        <mxCell id="ITTZHsT7kYhz0qVGaieH-30" value="" style="html=1;whiteSpace=wrap;shape=isoCube2;backgroundOutline=1;isoAngle=15;" vertex="1" parent="1">
          <mxGeometry x="280" y="118" width="63" height="70" as="geometry" />
        </mxCell>
        <mxCell id="ITTZHsT7kYhz0qVGaieH-31" value="" style="html=1;whiteSpace=wrap;shape=isoCube2;backgroundOutline=1;isoAngle=15;" vertex="1" parent="1">
          <mxGeometry x="694" y="120" width="63" height="70" as="geometry" />
        </mxCell>
        <mxCell id="ITTZHsT7kYhz0qVGaieH-32" value="" style="html=1;whiteSpace=wrap;shape=isoCube2;backgroundOutline=1;isoAngle=15;" vertex="1" parent="1">
          <mxGeometry x="665" y="134" width="63" height="70" as="geometry" />
        </mxCell>
        <mxCell id="ITTZHsT7kYhz0qVGaieH-33" value="" style="html=1;whiteSpace=wrap;shape=isoCube2;backgroundOutline=1;isoAngle=15;" vertex="1" parent="1">
          <mxGeometry x="634" y="149" width="63" height="70" as="geometry" />
        </mxCell>
        <mxCell id="ITTZHsT7kYhz0qVGaieH-34" value="" style="html=1;whiteSpace=wrap;shape=isoCube2;backgroundOutline=1;isoAngle=15;" vertex="1" parent="1">
          <mxGeometry x="603" y="164" width="63" height="70" as="geometry" />
        </mxCell>
        <mxCell id="ITTZHsT7kYhz0qVGaieH-35" value="" style="html=1;whiteSpace=wrap;shape=isoCube2;backgroundOutline=1;isoAngle=15;" vertex="1" parent="1">
          <mxGeometry x="572" y="179" width="63" height="70" as="geometry" />
        </mxCell>
        <mxCell id="ITTZHsT7kYhz0qVGaieH-36" value="" style="html=1;whiteSpace=wrap;shape=isoCube2;backgroundOutline=1;isoAngle=15;" vertex="1" parent="1">
          <mxGeometry x="541" y="194" width="63" height="70" as="geometry" />
        </mxCell>
        <mxCell id="ITTZHsT7kYhz0qVGaieH-37" value="" style="html=1;whiteSpace=wrap;shape=isoCube2;backgroundOutline=1;isoAngle=15;" vertex="1" parent="1">
          <mxGeometry x="694" y="80" width="63" height="70" as="geometry" />
        </mxCell>
        <mxCell id="ITTZHsT7kYhz0qVGaieH-38" value="" style="html=1;whiteSpace=wrap;shape=isoCube2;backgroundOutline=1;isoAngle=15;" vertex="1" parent="1">
          <mxGeometry x="665" y="94" width="63" height="70" as="geometry" />
        </mxCell>
        <mxCell id="ITTZHsT7kYhz0qVGaieH-39" value="" style="html=1;whiteSpace=wrap;shape=isoCube2;backgroundOutline=1;isoAngle=15;" vertex="1" parent="1">
          <mxGeometry x="634" y="109" width="63" height="70" as="geometry" />
        </mxCell>
        <mxCell id="ITTZHsT7kYhz0qVGaieH-40" value="" style="html=1;whiteSpace=wrap;shape=isoCube2;backgroundOutline=1;isoAngle=15;" vertex="1" parent="1">
          <mxGeometry x="603" y="124" width="63" height="70" as="geometry" />
        </mxCell>
        <mxCell id="ITTZHsT7kYhz0qVGaieH-41" value="" style="html=1;whiteSpace=wrap;shape=isoCube2;backgroundOutline=1;isoAngle=15;" vertex="1" parent="1">
          <mxGeometry x="572" y="139" width="63" height="70" as="geometry" />
        </mxCell>
        <mxCell id="ITTZHsT7kYhz0qVGaieH-42" value="" style="html=1;whiteSpace=wrap;shape=isoCube2;backgroundOutline=1;isoAngle=15;" vertex="1" parent="1">
          <mxGeometry x="541" y="154" width="63" height="70" as="geometry" />
        </mxCell>
        <mxCell id="ITTZHsT7kYhz0qVGaieH-43" value="" style="html=1;whiteSpace=wrap;shape=isoCube2;backgroundOutline=1;isoAngle=15;" vertex="1" parent="1">
          <mxGeometry x="694" y="40" width="63" height="70" as="geometry" />
        </mxCell>
        <mxCell id="ITTZHsT7kYhz0qVGaieH-44" value="" style="html=1;whiteSpace=wrap;shape=isoCube2;backgroundOutline=1;isoAngle=15;" vertex="1" parent="1">
          <mxGeometry x="665" y="54" width="63" height="70" as="geometry" />
        </mxCell>
        <mxCell id="ITTZHsT7kYhz0qVGaieH-45" value="" style="html=1;whiteSpace=wrap;shape=isoCube2;backgroundOutline=1;isoAngle=15;" vertex="1" parent="1">
          <mxGeometry x="634" y="69" width="63" height="70" as="geometry" />
        </mxCell>
        <mxCell id="ITTZHsT7kYhz0qVGaieH-46" value="" style="html=1;whiteSpace=wrap;shape=isoCube2;backgroundOutline=1;isoAngle=15;" vertex="1" parent="1">
          <mxGeometry x="603" y="84" width="63" height="70" as="geometry" />
        </mxCell>
        <mxCell id="ITTZHsT7kYhz0qVGaieH-47" value="" style="html=1;whiteSpace=wrap;shape=isoCube2;backgroundOutline=1;isoAngle=15;" vertex="1" parent="1">
          <mxGeometry x="572" y="99" width="63" height="70" as="geometry" />
        </mxCell>
        <mxCell id="ITTZHsT7kYhz0qVGaieH-48" value="" style="html=1;whiteSpace=wrap;shape=isoCube2;backgroundOutline=1;isoAngle=15;" vertex="1" parent="1">
          <mxGeometry x="541" y="114" width="63" height="70" as="geometry" />
        </mxCell>
        <mxCell id="ITTZHsT7kYhz0qVGaieH-49" value="" style="html=1;whiteSpace=wrap;shape=isoCube2;backgroundOutline=1;isoAngle=15;" vertex="1" parent="1">
          <mxGeometry x="694" width="63" height="70" as="geometry" />
        </mxCell>
        <mxCell id="ITTZHsT7kYhz0qVGaieH-50" value="" style="html=1;whiteSpace=wrap;shape=isoCube2;backgroundOutline=1;isoAngle=15;" vertex="1" parent="1">
          <mxGeometry x="665" y="14" width="63" height="70" as="geometry" />
        </mxCell>
        <mxCell id="ITTZHsT7kYhz0qVGaieH-51" value="" style="html=1;whiteSpace=wrap;shape=isoCube2;backgroundOutline=1;isoAngle=15;" vertex="1" parent="1">
          <mxGeometry x="634" y="29" width="63" height="70" as="geometry" />
        </mxCell>
        <mxCell id="ITTZHsT7kYhz0qVGaieH-52" value="" style="html=1;whiteSpace=wrap;shape=isoCube2;backgroundOutline=1;isoAngle=15;" vertex="1" parent="1">
          <mxGeometry x="603" y="44" width="63" height="70" as="geometry" />
        </mxCell>
        <mxCell id="ITTZHsT7kYhz0qVGaieH-53" value="" style="html=1;whiteSpace=wrap;shape=isoCube2;backgroundOutline=1;isoAngle=15;" vertex="1" parent="1">
          <mxGeometry x="572" y="59" width="63" height="70" as="geometry" />
        </mxCell>
        <mxCell id="ITTZHsT7kYhz0qVGaieH-54" value="" style="html=1;whiteSpace=wrap;shape=isoCube2;backgroundOutline=1;isoAngle=15;" vertex="1" parent="1">
          <mxGeometry x="541" y="74" width="63" height="70" as="geometry" />
        </mxCell>
        <mxCell id="ITTZHsT7kYhz0qVGaieH-79" value="" style="html=1;whiteSpace=wrap;shape=isoCube2;backgroundOutline=1;isoAngle=15;" vertex="1" parent="1">
          <mxGeometry x="725" y="135" width="63" height="70" as="geometry" />
        </mxCell>
        <mxCell id="ITTZHsT7kYhz0qVGaieH-80" value="" style="html=1;whiteSpace=wrap;shape=isoCube2;backgroundOutline=1;isoAngle=15;" vertex="1" parent="1">
          <mxGeometry x="696" y="149" width="63" height="70" as="geometry" />
        </mxCell>
        <mxCell id="ITTZHsT7kYhz0qVGaieH-81" value="" style="html=1;whiteSpace=wrap;shape=isoCube2;backgroundOutline=1;isoAngle=15;" vertex="1" parent="1">
          <mxGeometry x="665" y="164" width="63" height="70" as="geometry" />
        </mxCell>
        <mxCell id="ITTZHsT7kYhz0qVGaieH-82" value="" style="html=1;whiteSpace=wrap;shape=isoCube2;backgroundOutline=1;isoAngle=15;" vertex="1" parent="1">
          <mxGeometry x="634" y="179" width="63" height="70" as="geometry" />
        </mxCell>
        <mxCell id="ITTZHsT7kYhz0qVGaieH-83" value="" style="html=1;whiteSpace=wrap;shape=isoCube2;backgroundOutline=1;isoAngle=15;" vertex="1" parent="1">
          <mxGeometry x="603" y="194" width="63" height="70" as="geometry" />
        </mxCell>
        <mxCell id="ITTZHsT7kYhz0qVGaieH-84" value="" style="html=1;whiteSpace=wrap;shape=isoCube2;backgroundOutline=1;isoAngle=15;" vertex="1" parent="1">
          <mxGeometry x="572" y="209" width="63" height="70" as="geometry" />
        </mxCell>
        <mxCell id="ITTZHsT7kYhz0qVGaieH-85" value="" style="html=1;whiteSpace=wrap;shape=isoCube2;backgroundOutline=1;isoAngle=15;" vertex="1" parent="1">
          <mxGeometry x="725" y="95" width="63" height="70" as="geometry" />
        </mxCell>
        <mxCell id="ITTZHsT7kYhz0qVGaieH-86" value="" style="html=1;whiteSpace=wrap;shape=isoCube2;backgroundOutline=1;isoAngle=15;" vertex="1" parent="1">
          <mxGeometry x="696" y="109" width="63" height="70" as="geometry" />
        </mxCell>
        <mxCell id="ITTZHsT7kYhz0qVGaieH-87" value="" style="html=1;whiteSpace=wrap;shape=isoCube2;backgroundOutline=1;isoAngle=15;" vertex="1" parent="1">
          <mxGeometry x="665" y="124" width="63" height="70" as="geometry" />
        </mxCell>
        <mxCell id="ITTZHsT7kYhz0qVGaieH-88" value="" style="html=1;whiteSpace=wrap;shape=isoCube2;backgroundOutline=1;isoAngle=15;" vertex="1" parent="1">
          <mxGeometry x="634" y="139" width="63" height="70" as="geometry" />
        </mxCell>
        <mxCell id="ITTZHsT7kYhz0qVGaieH-89" value="" style="html=1;whiteSpace=wrap;shape=isoCube2;backgroundOutline=1;isoAngle=15;" vertex="1" parent="1">
          <mxGeometry x="603" y="154" width="63" height="70" as="geometry" />
        </mxCell>
        <mxCell id="ITTZHsT7kYhz0qVGaieH-90" value="" style="html=1;whiteSpace=wrap;shape=isoCube2;backgroundOutline=1;isoAngle=15;" vertex="1" parent="1">
          <mxGeometry x="572" y="169" width="63" height="70" as="geometry" />
        </mxCell>
        <mxCell id="ITTZHsT7kYhz0qVGaieH-91" value="" style="html=1;whiteSpace=wrap;shape=isoCube2;backgroundOutline=1;isoAngle=15;" vertex="1" parent="1">
          <mxGeometry x="725" y="55" width="63" height="70" as="geometry" />
        </mxCell>
        <mxCell id="ITTZHsT7kYhz0qVGaieH-92" value="" style="html=1;whiteSpace=wrap;shape=isoCube2;backgroundOutline=1;isoAngle=15;" vertex="1" parent="1">
          <mxGeometry x="696" y="69" width="63" height="70" as="geometry" />
        </mxCell>
        <mxCell id="ITTZHsT7kYhz0qVGaieH-93" value="" style="html=1;whiteSpace=wrap;shape=isoCube2;backgroundOutline=1;isoAngle=15;" vertex="1" parent="1">
          <mxGeometry x="665" y="84" width="63" height="70" as="geometry" />
        </mxCell>
        <mxCell id="ITTZHsT7kYhz0qVGaieH-94" value="" style="html=1;whiteSpace=wrap;shape=isoCube2;backgroundOutline=1;isoAngle=15;" vertex="1" parent="1">
          <mxGeometry x="634" y="99" width="63" height="70" as="geometry" />
        </mxCell>
        <mxCell id="ITTZHsT7kYhz0qVGaieH-95" value="" style="html=1;whiteSpace=wrap;shape=isoCube2;backgroundOutline=1;isoAngle=15;" vertex="1" parent="1">
          <mxGeometry x="603" y="114" width="63" height="70" as="geometry" />
        </mxCell>
        <mxCell id="ITTZHsT7kYhz0qVGaieH-96" value="" style="html=1;whiteSpace=wrap;shape=isoCube2;backgroundOutline=1;isoAngle=15;" vertex="1" parent="1">
          <mxGeometry x="572" y="129" width="63" height="70" as="geometry" />
        </mxCell>
        <mxCell id="ITTZHsT7kYhz0qVGaieH-97" value="" style="html=1;whiteSpace=wrap;shape=isoCube2;backgroundOutline=1;isoAngle=15;" vertex="1" parent="1">
          <mxGeometry x="725" y="15" width="63" height="70" as="geometry" />
        </mxCell>
        <mxCell id="ITTZHsT7kYhz0qVGaieH-98" value="" style="html=1;whiteSpace=wrap;shape=isoCube2;backgroundOutline=1;isoAngle=15;" vertex="1" parent="1">
          <mxGeometry x="696" y="29" width="63" height="70" as="geometry" />
        </mxCell>
        <mxCell id="ITTZHsT7kYhz0qVGaieH-99" value="" style="html=1;whiteSpace=wrap;shape=isoCube2;backgroundOutline=1;isoAngle=15;" vertex="1" parent="1">
          <mxGeometry x="665" y="44" width="63" height="70" as="geometry" />
        </mxCell>
        <mxCell id="ITTZHsT7kYhz0qVGaieH-100" value="" style="html=1;whiteSpace=wrap;shape=isoCube2;backgroundOutline=1;isoAngle=15;" vertex="1" parent="1">
          <mxGeometry x="634" y="59" width="63" height="70" as="geometry" />
        </mxCell>
        <mxCell id="ITTZHsT7kYhz0qVGaieH-101" value="" style="html=1;whiteSpace=wrap;shape=isoCube2;backgroundOutline=1;isoAngle=15;" vertex="1" parent="1">
          <mxGeometry x="603" y="74" width="63" height="70" as="geometry" />
        </mxCell>
        <mxCell id="ITTZHsT7kYhz0qVGaieH-102" value="" style="html=1;whiteSpace=wrap;shape=isoCube2;backgroundOutline=1;isoAngle=15;" vertex="1" parent="1">
          <mxGeometry x="572" y="89" width="63" height="70" as="geometry" />
        </mxCell>
        <mxCell id="ITTZHsT7kYhz0qVGaieH-103" value="" style="html=1;whiteSpace=wrap;shape=isoCube2;backgroundOutline=1;isoAngle=15;" vertex="1" parent="1">
          <mxGeometry x="756" y="150" width="63" height="70" as="geometry" />
        </mxCell>
        <mxCell id="ITTZHsT7kYhz0qVGaieH-104" value="" style="html=1;whiteSpace=wrap;shape=isoCube2;backgroundOutline=1;isoAngle=15;" vertex="1" parent="1">
          <mxGeometry x="727" y="164" width="63" height="70" as="geometry" />
        </mxCell>
        <mxCell id="ITTZHsT7kYhz0qVGaieH-105" value="" style="html=1;whiteSpace=wrap;shape=isoCube2;backgroundOutline=1;isoAngle=15;" vertex="1" parent="1">
          <mxGeometry x="696" y="179" width="63" height="70" as="geometry" />
        </mxCell>
        <mxCell id="ITTZHsT7kYhz0qVGaieH-106" value="" style="html=1;whiteSpace=wrap;shape=isoCube2;backgroundOutline=1;isoAngle=15;" vertex="1" parent="1">
          <mxGeometry x="665" y="194" width="63" height="70" as="geometry" />
        </mxCell>
        <mxCell id="ITTZHsT7kYhz0qVGaieH-107" value="" style="html=1;whiteSpace=wrap;shape=isoCube2;backgroundOutline=1;isoAngle=15;" vertex="1" parent="1">
          <mxGeometry x="634" y="209" width="63" height="70" as="geometry" />
        </mxCell>
        <mxCell id="ITTZHsT7kYhz0qVGaieH-108" value="" style="html=1;whiteSpace=wrap;shape=isoCube2;backgroundOutline=1;isoAngle=15;" vertex="1" parent="1">
          <mxGeometry x="603" y="224" width="63" height="70" as="geometry" />
        </mxCell>
        <mxCell id="ITTZHsT7kYhz0qVGaieH-109" value="" style="html=1;whiteSpace=wrap;shape=isoCube2;backgroundOutline=1;isoAngle=15;" vertex="1" parent="1">
          <mxGeometry x="756" y="110" width="63" height="70" as="geometry" />
        </mxCell>
        <mxCell id="ITTZHsT7kYhz0qVGaieH-110" value="" style="html=1;whiteSpace=wrap;shape=isoCube2;backgroundOutline=1;isoAngle=15;" vertex="1" parent="1">
          <mxGeometry x="727" y="124" width="63" height="70" as="geometry" />
        </mxCell>
        <mxCell id="ITTZHsT7kYhz0qVGaieH-111" value="" style="html=1;whiteSpace=wrap;shape=isoCube2;backgroundOutline=1;isoAngle=15;" vertex="1" parent="1">
          <mxGeometry x="696" y="139" width="63" height="70" as="geometry" />
        </mxCell>
        <mxCell id="ITTZHsT7kYhz0qVGaieH-112" value="" style="html=1;whiteSpace=wrap;shape=isoCube2;backgroundOutline=1;isoAngle=15;" vertex="1" parent="1">
          <mxGeometry x="665" y="154" width="63" height="70" as="geometry" />
        </mxCell>
        <mxCell id="ITTZHsT7kYhz0qVGaieH-113" value="" style="html=1;whiteSpace=wrap;shape=isoCube2;backgroundOutline=1;isoAngle=15;" vertex="1" parent="1">
          <mxGeometry x="634" y="169" width="63" height="70" as="geometry" />
        </mxCell>
        <mxCell id="ITTZHsT7kYhz0qVGaieH-114" value="" style="html=1;whiteSpace=wrap;shape=isoCube2;backgroundOutline=1;isoAngle=15;" vertex="1" parent="1">
          <mxGeometry x="603" y="184" width="63" height="70" as="geometry" />
        </mxCell>
        <mxCell id="ITTZHsT7kYhz0qVGaieH-115" value="" style="html=1;whiteSpace=wrap;shape=isoCube2;backgroundOutline=1;isoAngle=15;" vertex="1" parent="1">
          <mxGeometry x="756" y="70" width="63" height="70" as="geometry" />
        </mxCell>
        <mxCell id="ITTZHsT7kYhz0qVGaieH-116" value="" style="html=1;whiteSpace=wrap;shape=isoCube2;backgroundOutline=1;isoAngle=15;" vertex="1" parent="1">
          <mxGeometry x="727" y="84" width="63" height="70" as="geometry" />
        </mxCell>
        <mxCell id="ITTZHsT7kYhz0qVGaieH-117" value="" style="html=1;whiteSpace=wrap;shape=isoCube2;backgroundOutline=1;isoAngle=15;" vertex="1" parent="1">
          <mxGeometry x="696" y="99" width="63" height="70" as="geometry" />
        </mxCell>
        <mxCell id="ITTZHsT7kYhz0qVGaieH-118" value="" style="html=1;whiteSpace=wrap;shape=isoCube2;backgroundOutline=1;isoAngle=15;" vertex="1" parent="1">
          <mxGeometry x="665" y="114" width="63" height="70" as="geometry" />
        </mxCell>
        <mxCell id="ITTZHsT7kYhz0qVGaieH-119" value="" style="html=1;whiteSpace=wrap;shape=isoCube2;backgroundOutline=1;isoAngle=15;" vertex="1" parent="1">
          <mxGeometry x="634" y="129" width="63" height="70" as="geometry" />
        </mxCell>
        <mxCell id="ITTZHsT7kYhz0qVGaieH-120" value="" style="html=1;whiteSpace=wrap;shape=isoCube2;backgroundOutline=1;isoAngle=15;" vertex="1" parent="1">
          <mxGeometry x="603" y="144" width="63" height="70" as="geometry" />
        </mxCell>
        <mxCell id="ITTZHsT7kYhz0qVGaieH-121" value="" style="html=1;whiteSpace=wrap;shape=isoCube2;backgroundOutline=1;isoAngle=15;" vertex="1" parent="1">
          <mxGeometry x="756" y="30" width="63" height="70" as="geometry" />
        </mxCell>
        <mxCell id="ITTZHsT7kYhz0qVGaieH-122" value="" style="html=1;whiteSpace=wrap;shape=isoCube2;backgroundOutline=1;isoAngle=15;" vertex="1" parent="1">
          <mxGeometry x="727" y="44" width="63" height="70" as="geometry" />
        </mxCell>
        <mxCell id="ITTZHsT7kYhz0qVGaieH-123" value="" style="html=1;whiteSpace=wrap;shape=isoCube2;backgroundOutline=1;isoAngle=15;" vertex="1" parent="1">
          <mxGeometry x="696" y="59" width="63" height="70" as="geometry" />
        </mxCell>
        <mxCell id="ITTZHsT7kYhz0qVGaieH-124" value="" style="html=1;whiteSpace=wrap;shape=isoCube2;backgroundOutline=1;isoAngle=15;" vertex="1" parent="1">
          <mxGeometry x="665" y="74" width="63" height="70" as="geometry" />
        </mxCell>
        <mxCell id="ITTZHsT7kYhz0qVGaieH-125" value="" style="html=1;whiteSpace=wrap;shape=isoCube2;backgroundOutline=1;isoAngle=15;" vertex="1" parent="1">
          <mxGeometry x="634" y="89" width="63" height="70" as="geometry" />
        </mxCell>
        <mxCell id="ITTZHsT7kYhz0qVGaieH-126" value="" style="html=1;whiteSpace=wrap;shape=isoCube2;backgroundOutline=1;isoAngle=15;" vertex="1" parent="1">
          <mxGeometry x="603" y="104" width="63" height="70" as="geometry" />
        </mxCell>
        <mxCell id="ITTZHsT7kYhz0qVGaieH-127" value="" style="html=1;whiteSpace=wrap;shape=isoCube2;backgroundOutline=1;isoAngle=15;" vertex="1" parent="1">
          <mxGeometry x="787" y="165" width="63" height="70" as="geometry" />
        </mxCell>
        <mxCell id="ITTZHsT7kYhz0qVGaieH-128" value="" style="html=1;whiteSpace=wrap;shape=isoCube2;backgroundOutline=1;isoAngle=15;" vertex="1" parent="1">
          <mxGeometry x="758" y="179" width="63" height="70" as="geometry" />
        </mxCell>
        <mxCell id="ITTZHsT7kYhz0qVGaieH-129" value="" style="html=1;whiteSpace=wrap;shape=isoCube2;backgroundOutline=1;isoAngle=15;" vertex="1" parent="1">
          <mxGeometry x="727" y="194" width="63" height="70" as="geometry" />
        </mxCell>
        <mxCell id="ITTZHsT7kYhz0qVGaieH-130" value="" style="html=1;whiteSpace=wrap;shape=isoCube2;backgroundOutline=1;isoAngle=15;" vertex="1" parent="1">
          <mxGeometry x="696" y="209" width="63" height="70" as="geometry" />
        </mxCell>
        <mxCell id="ITTZHsT7kYhz0qVGaieH-131" value="" style="html=1;whiteSpace=wrap;shape=isoCube2;backgroundOutline=1;isoAngle=15;" vertex="1" parent="1">
          <mxGeometry x="665" y="224" width="63" height="70" as="geometry" />
        </mxCell>
        <mxCell id="ITTZHsT7kYhz0qVGaieH-132" value="" style="html=1;whiteSpace=wrap;shape=isoCube2;backgroundOutline=1;isoAngle=15;" vertex="1" parent="1">
          <mxGeometry x="634" y="239" width="63" height="70" as="geometry" />
        </mxCell>
        <mxCell id="ITTZHsT7kYhz0qVGaieH-133" value="" style="html=1;whiteSpace=wrap;shape=isoCube2;backgroundOutline=1;isoAngle=15;" vertex="1" parent="1">
          <mxGeometry x="787" y="125" width="63" height="70" as="geometry" />
        </mxCell>
        <mxCell id="ITTZHsT7kYhz0qVGaieH-134" value="" style="html=1;whiteSpace=wrap;shape=isoCube2;backgroundOutline=1;isoAngle=15;" vertex="1" parent="1">
          <mxGeometry x="758" y="139" width="63" height="70" as="geometry" />
        </mxCell>
        <mxCell id="ITTZHsT7kYhz0qVGaieH-135" value="" style="html=1;whiteSpace=wrap;shape=isoCube2;backgroundOutline=1;isoAngle=15;" vertex="1" parent="1">
          <mxGeometry x="727" y="154" width="63" height="70" as="geometry" />
        </mxCell>
        <mxCell id="ITTZHsT7kYhz0qVGaieH-136" value="" style="html=1;whiteSpace=wrap;shape=isoCube2;backgroundOutline=1;isoAngle=15;" vertex="1" parent="1">
          <mxGeometry x="696" y="169" width="63" height="70" as="geometry" />
        </mxCell>
        <mxCell id="ITTZHsT7kYhz0qVGaieH-137" value="" style="html=1;whiteSpace=wrap;shape=isoCube2;backgroundOutline=1;isoAngle=15;" vertex="1" parent="1">
          <mxGeometry x="665" y="184" width="63" height="70" as="geometry" />
        </mxCell>
        <mxCell id="ITTZHsT7kYhz0qVGaieH-138" value="" style="html=1;whiteSpace=wrap;shape=isoCube2;backgroundOutline=1;isoAngle=15;" vertex="1" parent="1">
          <mxGeometry x="634" y="199" width="63" height="70" as="geometry" />
        </mxCell>
        <mxCell id="ITTZHsT7kYhz0qVGaieH-139" value="" style="html=1;whiteSpace=wrap;shape=isoCube2;backgroundOutline=1;isoAngle=15;" vertex="1" parent="1">
          <mxGeometry x="787" y="85" width="63" height="70" as="geometry" />
        </mxCell>
        <mxCell id="ITTZHsT7kYhz0qVGaieH-140" value="" style="html=1;whiteSpace=wrap;shape=isoCube2;backgroundOutline=1;isoAngle=15;" vertex="1" parent="1">
          <mxGeometry x="758" y="99" width="63" height="70" as="geometry" />
        </mxCell>
        <mxCell id="ITTZHsT7kYhz0qVGaieH-141" value="" style="html=1;whiteSpace=wrap;shape=isoCube2;backgroundOutline=1;isoAngle=15;" vertex="1" parent="1">
          <mxGeometry x="727" y="114" width="63" height="70" as="geometry" />
        </mxCell>
        <mxCell id="ITTZHsT7kYhz0qVGaieH-142" value="" style="html=1;whiteSpace=wrap;shape=isoCube2;backgroundOutline=1;isoAngle=15;" vertex="1" parent="1">
          <mxGeometry x="696" y="129" width="63" height="70" as="geometry" />
        </mxCell>
        <mxCell id="ITTZHsT7kYhz0qVGaieH-143" value="" style="html=1;whiteSpace=wrap;shape=isoCube2;backgroundOutline=1;isoAngle=15;" vertex="1" parent="1">
          <mxGeometry x="665" y="144" width="63" height="70" as="geometry" />
        </mxCell>
        <mxCell id="ITTZHsT7kYhz0qVGaieH-144" value="" style="html=1;whiteSpace=wrap;shape=isoCube2;backgroundOutline=1;isoAngle=15;" vertex="1" parent="1">
          <mxGeometry x="634" y="159" width="63" height="70" as="geometry" />
        </mxCell>
        <mxCell id="ITTZHsT7kYhz0qVGaieH-145" value="" style="html=1;whiteSpace=wrap;shape=isoCube2;backgroundOutline=1;isoAngle=15;" vertex="1" parent="1">
          <mxGeometry x="787" y="45" width="63" height="70" as="geometry" />
        </mxCell>
        <mxCell id="ITTZHsT7kYhz0qVGaieH-146" value="" style="html=1;whiteSpace=wrap;shape=isoCube2;backgroundOutline=1;isoAngle=15;" vertex="1" parent="1">
          <mxGeometry x="758" y="59" width="63" height="70" as="geometry" />
        </mxCell>
        <mxCell id="ITTZHsT7kYhz0qVGaieH-147" value="" style="html=1;whiteSpace=wrap;shape=isoCube2;backgroundOutline=1;isoAngle=15;" vertex="1" parent="1">
          <mxGeometry x="727" y="74" width="63" height="70" as="geometry" />
        </mxCell>
        <mxCell id="ITTZHsT7kYhz0qVGaieH-148" value="" style="html=1;whiteSpace=wrap;shape=isoCube2;backgroundOutline=1;isoAngle=15;" vertex="1" parent="1">
          <mxGeometry x="696" y="89" width="63" height="70" as="geometry" />
        </mxCell>
        <mxCell id="ITTZHsT7kYhz0qVGaieH-149" value="" style="html=1;whiteSpace=wrap;shape=isoCube2;backgroundOutline=1;isoAngle=15;" vertex="1" parent="1">
          <mxGeometry x="665" y="104" width="63" height="70" as="geometry" />
        </mxCell>
        <mxCell id="ITTZHsT7kYhz0qVGaieH-150" value="" style="html=1;whiteSpace=wrap;shape=isoCube2;backgroundOutline=1;isoAngle=15;" vertex="1" parent="1">
          <mxGeometry x="634" y="119" width="63" height="70" as="geometry" />
        </mxCell>
      </root>
    </mxGraphModel>
  </diagram>
</mxfile>
